<svg width="38" height="34" viewBox="0 0 38 34" fill="none" xmlns="http://www.w3.org/2000/svg">
<path d="M31.8244 33.6747H6.17555C5.48666 33.6747 4.92831 33.1163 4.92831 32.4274V15.4131C4.92831 14.7242 5.48666 14.1659 6.17555 14.1659C6.86443 14.1659 7.42278 14.7242 7.42278 15.4131V31.1802H30.5768V15.4131C30.5768 14.7242 31.1351 14.1659 31.824 14.1659C32.5129 14.1659 33.0713 14.7242 33.0713 15.4131V32.4274C33.0717 33.1167 32.5133 33.6747 31.8244 33.6747Z" fill="white"/>
<path d="M36.2521 14.5467C36.011 14.5467 35.7669 14.4769 35.552 14.3305L19 3.08091L2.44799 14.3309C1.87759 14.7192 1.10223 14.57 0.715588 14.0008C0.328115 13.4308 0.476119 12.6555 1.04569 12.2684L18.2991 0.541546C18.7227 0.253851 19.2781 0.253851 19.7014 0.541546L36.9547 12.2684C37.5243 12.6555 37.6723 13.4313 37.2852 14.0008C37.0433 14.3555 36.6512 14.5467 36.2521 14.5467Z" fill="white"/>
<path d="M31.8244 6.27259C31.1356 6.27259 30.5772 5.71424 30.5772 5.02536V3.0248H27.4067C26.7179 3.0248 26.1595 2.46645 26.1595 1.77757C26.1595 1.08868 26.7179 0.530334 27.4067 0.530334H31.8244C32.5133 0.530334 33.0717 1.08868 33.0717 1.77757V5.02536C33.0717 5.71424 32.5133 6.27259 31.8244 6.27259Z" fill="white"/>
</svg>
